<mxfile host="app.diagrams.net" modified="2023-12-18T16:27:07.591Z" agent="Mozilla/5.0 (Macintosh; Intel Mac OS X 10_15_7) AppleWebKit/537.36 (KHTML, like Gecko) Chrome/120.0.0.0 Safari/537.36" etag="0ESFKYe_OaZtcXEk00kT" version="22.1.11" type="device">
  <diagram name="Page-1" id="eC_3AvqEiCiULbjy1eh8">
    <mxGraphModel dx="1363" dy="761" grid="1" gridSize="10" guides="1" tooltips="1" connect="1" arrows="1" fold="1" page="1" pageScale="1" pageWidth="827" pageHeight="1169" math="0" shadow="0">
      <root>
        <mxCell id="0" />
        <mxCell id="1" parent="0" />
        <mxCell id="uqzOL18VkbrSNICvGYCJ-1" style="edgeStyle=orthogonalEdgeStyle;rounded=0;orthogonalLoop=1;jettySize=auto;html=1;entryX=0.5;entryY=0;entryDx=0;entryDy=0;" edge="1" parent="1" source="uqzOL18VkbrSNICvGYCJ-2" target="uqzOL18VkbrSNICvGYCJ-4">
          <mxGeometry relative="1" as="geometry" />
        </mxCell>
        <mxCell id="uqzOL18VkbrSNICvGYCJ-2" value="" style="ellipse;whiteSpace=wrap;html=1;aspect=fixed;fillColor=#000000;" vertex="1" parent="1">
          <mxGeometry x="265" y="60" width="30" height="30" as="geometry" />
        </mxCell>
        <mxCell id="uqzOL18VkbrSNICvGYCJ-3" style="edgeStyle=orthogonalEdgeStyle;rounded=0;orthogonalLoop=1;jettySize=auto;html=1;exitX=0;exitY=0;exitDx=0;exitDy=0;" edge="1" parent="1" source="uqzOL18VkbrSNICvGYCJ-4">
          <mxGeometry relative="1" as="geometry">
            <mxPoint x="220" y="170" as="targetPoint" />
            <Array as="points">
              <mxPoint x="180" y="280" />
              <mxPoint x="130" y="280" />
              <mxPoint x="130" y="120" />
              <mxPoint x="220" y="120" />
            </Array>
          </mxGeometry>
        </mxCell>
        <mxCell id="uqzOL18VkbrSNICvGYCJ-9" style="edgeStyle=orthogonalEdgeStyle;rounded=0;orthogonalLoop=1;jettySize=auto;html=1;entryX=0;entryY=0.5;entryDx=0;entryDy=0;" edge="1" parent="1" source="uqzOL18VkbrSNICvGYCJ-4" target="uqzOL18VkbrSNICvGYCJ-8">
          <mxGeometry relative="1" as="geometry" />
        </mxCell>
        <mxCell id="uqzOL18VkbrSNICvGYCJ-4" value="Validate" style="swimlane;whiteSpace=wrap;html=1;" vertex="1" parent="1">
          <mxGeometry x="180" y="180" width="200" height="200" as="geometry" />
        </mxCell>
        <mxCell id="uqzOL18VkbrSNICvGYCJ-5" value="do/check user" style="text;html=1;align=center;verticalAlign=middle;resizable=0;points=[];autosize=1;strokeColor=none;fillColor=none;" vertex="1" parent="uqzOL18VkbrSNICvGYCJ-4">
          <mxGeometry x="50" y="68" width="100" height="30" as="geometry" />
        </mxCell>
        <mxCell id="uqzOL18VkbrSNICvGYCJ-6" value="Login" style="text;html=1;align=center;verticalAlign=middle;resizable=0;points=[];autosize=1;strokeColor=none;fillColor=none;" vertex="1" parent="1">
          <mxGeometry x="290" y="108" width="50" height="30" as="geometry" />
        </mxCell>
        <mxCell id="uqzOL18VkbrSNICvGYCJ-7" value="[not valid]" style="text;html=1;align=center;verticalAlign=middle;resizable=0;points=[];autosize=1;strokeColor=none;fillColor=none;" vertex="1" parent="1">
          <mxGeometry x="50" y="180" width="70" height="30" as="geometry" />
        </mxCell>
        <mxCell id="uqzOL18VkbrSNICvGYCJ-13" style="edgeStyle=orthogonalEdgeStyle;rounded=0;orthogonalLoop=1;jettySize=auto;html=1;entryX=0;entryY=0.5;entryDx=0;entryDy=0;" edge="1" parent="1" source="uqzOL18VkbrSNICvGYCJ-8" target="uqzOL18VkbrSNICvGYCJ-12">
          <mxGeometry relative="1" as="geometry" />
        </mxCell>
        <mxCell id="uqzOL18VkbrSNICvGYCJ-21" style="edgeStyle=orthogonalEdgeStyle;rounded=0;orthogonalLoop=1;jettySize=auto;html=1;entryX=0;entryY=0.5;entryDx=0;entryDy=0;" edge="1" parent="1" source="uqzOL18VkbrSNICvGYCJ-8" target="uqzOL18VkbrSNICvGYCJ-18">
          <mxGeometry relative="1" as="geometry">
            <Array as="points">
              <mxPoint x="927" y="585" />
            </Array>
          </mxGeometry>
        </mxCell>
        <mxCell id="uqzOL18VkbrSNICvGYCJ-25" style="edgeStyle=orthogonalEdgeStyle;rounded=0;orthogonalLoop=1;jettySize=auto;html=1;exitX=0.25;exitY=1;exitDx=0;exitDy=0;entryX=0;entryY=0.5;entryDx=0;entryDy=0;" edge="1" parent="1" source="uqzOL18VkbrSNICvGYCJ-8" target="uqzOL18VkbrSNICvGYCJ-24">
          <mxGeometry relative="1" as="geometry" />
        </mxCell>
        <mxCell id="uqzOL18VkbrSNICvGYCJ-39" style="edgeStyle=orthogonalEdgeStyle;rounded=0;orthogonalLoop=1;jettySize=auto;html=1;exitX=0;exitY=1;exitDx=0;exitDy=0;entryX=0.5;entryY=0;entryDx=0;entryDy=0;" edge="1" parent="1" source="uqzOL18VkbrSNICvGYCJ-8" target="uqzOL18VkbrSNICvGYCJ-38">
          <mxGeometry relative="1" as="geometry" />
        </mxCell>
        <mxCell id="uqzOL18VkbrSNICvGYCJ-8" value="Note book manager" style="swimlane;whiteSpace=wrap;html=1;" vertex="1" parent="1">
          <mxGeometry x="827" y="180" width="200" height="200" as="geometry" />
        </mxCell>
        <mxCell id="uqzOL18VkbrSNICvGYCJ-11" value="do/show notebooks and options" style="text;html=1;align=center;verticalAlign=middle;resizable=0;points=[];autosize=1;strokeColor=none;fillColor=none;" vertex="1" parent="uqzOL18VkbrSNICvGYCJ-8">
          <mxGeometry x="5" y="68" width="190" height="30" as="geometry" />
        </mxCell>
        <mxCell id="uqzOL18VkbrSNICvGYCJ-10" value="[valid]/access notebook management from interface" style="text;html=1;align=center;verticalAlign=middle;resizable=0;points=[];autosize=1;strokeColor=none;fillColor=none;" vertex="1" parent="1">
          <mxGeometry x="460" y="250" width="300" height="30" as="geometry" />
        </mxCell>
        <mxCell id="uqzOL18VkbrSNICvGYCJ-16" style="edgeStyle=orthogonalEdgeStyle;rounded=0;orthogonalLoop=1;jettySize=auto;html=1;entryX=0.5;entryY=0;entryDx=0;entryDy=0;exitX=1;exitY=0.25;exitDx=0;exitDy=0;" edge="1" parent="1" source="uqzOL18VkbrSNICvGYCJ-12" target="uqzOL18VkbrSNICvGYCJ-12">
          <mxGeometry relative="1" as="geometry">
            <mxPoint x="1290" y="160" as="targetPoint" />
            <Array as="points">
              <mxPoint x="1430" y="230" />
              <mxPoint x="1430" y="120" />
              <mxPoint x="1290" y="120" />
            </Array>
          </mxGeometry>
        </mxCell>
        <mxCell id="uqzOL18VkbrSNICvGYCJ-19" style="edgeStyle=orthogonalEdgeStyle;rounded=0;orthogonalLoop=1;jettySize=auto;html=1;entryX=0.5;entryY=0;entryDx=0;entryDy=0;" edge="1" parent="1" source="uqzOL18VkbrSNICvGYCJ-12" target="uqzOL18VkbrSNICvGYCJ-18">
          <mxGeometry relative="1" as="geometry" />
        </mxCell>
        <mxCell id="uqzOL18VkbrSNICvGYCJ-12" value="Create notebook" style="swimlane;whiteSpace=wrap;html=1;" vertex="1" parent="1">
          <mxGeometry x="1190" y="180" width="200" height="200" as="geometry" />
        </mxCell>
        <mxCell id="uqzOL18VkbrSNICvGYCJ-15" value="do/add new notebook" style="text;html=1;align=center;verticalAlign=middle;resizable=0;points=[];autosize=1;strokeColor=none;fillColor=none;" vertex="1" parent="uqzOL18VkbrSNICvGYCJ-12">
          <mxGeometry x="30" y="68" width="140" height="30" as="geometry" />
        </mxCell>
        <mxCell id="uqzOL18VkbrSNICvGYCJ-14" value="create new notebook" style="text;html=1;align=center;verticalAlign=middle;resizable=0;points=[];autosize=1;strokeColor=none;fillColor=none;" vertex="1" parent="1">
          <mxGeometry x="1050" y="250" width="130" height="30" as="geometry" />
        </mxCell>
        <mxCell id="uqzOL18VkbrSNICvGYCJ-17" value="create another notebook" style="text;html=1;align=center;verticalAlign=middle;resizable=0;points=[];autosize=1;strokeColor=none;fillColor=none;" vertex="1" parent="1">
          <mxGeometry x="1280" y="90" width="150" height="30" as="geometry" />
        </mxCell>
        <mxCell id="uqzOL18VkbrSNICvGYCJ-34" style="edgeStyle=orthogonalEdgeStyle;rounded=0;orthogonalLoop=1;jettySize=auto;html=1;entryX=1;entryY=0.5;entryDx=0;entryDy=0;" edge="1" parent="1" source="uqzOL18VkbrSNICvGYCJ-18" target="uqzOL18VkbrSNICvGYCJ-28">
          <mxGeometry relative="1" as="geometry">
            <Array as="points">
              <mxPoint x="1520" y="585" />
              <mxPoint x="1520" y="1269" />
            </Array>
          </mxGeometry>
        </mxCell>
        <mxCell id="uqzOL18VkbrSNICvGYCJ-18" value="Label notebook&amp;nbsp;" style="swimlane;whiteSpace=wrap;html=1;" vertex="1" parent="1">
          <mxGeometry x="1170" y="485" width="265" height="200" as="geometry" />
        </mxCell>
        <mxCell id="uqzOL18VkbrSNICvGYCJ-23" value="do/modify or add label or category to notebook" style="text;html=1;align=center;verticalAlign=middle;resizable=0;points=[];autosize=1;strokeColor=none;fillColor=none;" vertex="1" parent="uqzOL18VkbrSNICvGYCJ-18">
          <mxGeometry x="-5" y="55" width="270" height="30" as="geometry" />
        </mxCell>
        <mxCell id="uqzOL18VkbrSNICvGYCJ-20" value="[notebook created]" style="text;html=1;align=center;verticalAlign=middle;resizable=0;points=[];autosize=1;strokeColor=none;fillColor=none;" vertex="1" parent="1">
          <mxGeometry x="1290" y="400" width="120" height="30" as="geometry" />
        </mxCell>
        <mxCell id="uqzOL18VkbrSNICvGYCJ-22" value="[notebook selected]/add label to notebook" style="text;html=1;align=center;verticalAlign=middle;resizable=0;points=[];autosize=1;strokeColor=none;fillColor=none;" vertex="1" parent="1">
          <mxGeometry x="920" y="554.5" width="250" height="30" as="geometry" />
        </mxCell>
        <mxCell id="uqzOL18VkbrSNICvGYCJ-29" style="edgeStyle=orthogonalEdgeStyle;rounded=0;orthogonalLoop=1;jettySize=auto;html=1;entryX=0.5;entryY=0;entryDx=0;entryDy=0;" edge="1" parent="1" source="uqzOL18VkbrSNICvGYCJ-24" target="uqzOL18VkbrSNICvGYCJ-28">
          <mxGeometry relative="1" as="geometry" />
        </mxCell>
        <mxCell id="uqzOL18VkbrSNICvGYCJ-24" value="Edit notebook" style="swimlane;whiteSpace=wrap;html=1;" vertex="1" parent="1">
          <mxGeometry x="1190" y="780" width="200" height="200" as="geometry" />
        </mxCell>
        <mxCell id="uqzOL18VkbrSNICvGYCJ-27" value="do/update content of notebook" style="text;html=1;align=center;verticalAlign=middle;resizable=0;points=[];autosize=1;strokeColor=none;fillColor=none;" vertex="1" parent="uqzOL18VkbrSNICvGYCJ-24">
          <mxGeometry x="5" y="70" width="190" height="30" as="geometry" />
        </mxCell>
        <mxCell id="uqzOL18VkbrSNICvGYCJ-26" value="[notebook seelcted]/edit notebook content" style="text;html=1;align=center;verticalAlign=middle;resizable=0;points=[];autosize=1;strokeColor=none;fillColor=none;" vertex="1" parent="1">
          <mxGeometry x="890" y="850" width="250" height="30" as="geometry" />
        </mxCell>
        <mxCell id="uqzOL18VkbrSNICvGYCJ-46" style="edgeStyle=orthogonalEdgeStyle;rounded=0;orthogonalLoop=1;jettySize=auto;html=1;" edge="1" parent="1" source="uqzOL18VkbrSNICvGYCJ-28" target="uqzOL18VkbrSNICvGYCJ-44">
          <mxGeometry relative="1" as="geometry" />
        </mxCell>
        <mxCell id="uqzOL18VkbrSNICvGYCJ-28" value="Save notebook" style="swimlane;whiteSpace=wrap;html=1;" vertex="1" parent="1">
          <mxGeometry x="1147.5" y="1169" width="285" height="200" as="geometry" />
        </mxCell>
        <mxCell id="uqzOL18VkbrSNICvGYCJ-35" value="do/save notebook to be accessed from anywhere" style="text;html=1;align=center;verticalAlign=middle;resizable=0;points=[];autosize=1;strokeColor=none;fillColor=none;" vertex="1" parent="uqzOL18VkbrSNICvGYCJ-28">
          <mxGeometry x="-5" y="71" width="290" height="30" as="geometry" />
        </mxCell>
        <mxCell id="uqzOL18VkbrSNICvGYCJ-36" value="[label added]" style="text;html=1;align=center;verticalAlign=middle;resizable=0;points=[];autosize=1;strokeColor=none;fillColor=none;" vertex="1" parent="1">
          <mxGeometry x="1432.5" y="555" width="90" height="30" as="geometry" />
        </mxCell>
        <mxCell id="uqzOL18VkbrSNICvGYCJ-42" style="edgeStyle=orthogonalEdgeStyle;rounded=0;orthogonalLoop=1;jettySize=auto;html=1;entryX=0;entryY=0.75;entryDx=0;entryDy=0;" edge="1" parent="1" source="uqzOL18VkbrSNICvGYCJ-38" target="uqzOL18VkbrSNICvGYCJ-8">
          <mxGeometry relative="1" as="geometry">
            <Array as="points">
              <mxPoint x="430" y="685" />
              <mxPoint x="430" y="330" />
            </Array>
          </mxGeometry>
        </mxCell>
        <mxCell id="uqzOL18VkbrSNICvGYCJ-38" value="Review notebook" style="swimlane;whiteSpace=wrap;html=1;" vertex="1" parent="1">
          <mxGeometry x="460" y="585" width="200" height="200" as="geometry" />
        </mxCell>
        <mxCell id="uqzOL18VkbrSNICvGYCJ-40" value="do/view notebook" style="text;html=1;align=center;verticalAlign=middle;resizable=0;points=[];autosize=1;strokeColor=none;fillColor=none;" vertex="1" parent="uqzOL18VkbrSNICvGYCJ-38">
          <mxGeometry x="40" y="65" width="120" height="30" as="geometry" />
        </mxCell>
        <mxCell id="uqzOL18VkbrSNICvGYCJ-41" value="[notebook selected]/open a existing notebook" style="text;html=1;align=center;verticalAlign=middle;resizable=0;points=[];autosize=1;strokeColor=none;fillColor=none;" vertex="1" parent="1">
          <mxGeometry x="560" y="485" width="260" height="30" as="geometry" />
        </mxCell>
        <mxCell id="uqzOL18VkbrSNICvGYCJ-43" value="[make changes to notebook]" style="text;html=1;align=center;verticalAlign=middle;resizable=0;points=[];autosize=1;strokeColor=none;fillColor=none;" vertex="1" parent="1">
          <mxGeometry x="260" y="498" width="170" height="30" as="geometry" />
        </mxCell>
        <mxCell id="uqzOL18VkbrSNICvGYCJ-44" value="" style="ellipse;whiteSpace=wrap;html=1;aspect=fixed;" vertex="1" parent="1">
          <mxGeometry x="1270" y="1510" width="40" height="40" as="geometry" />
        </mxCell>
        <mxCell id="uqzOL18VkbrSNICvGYCJ-45" value="" style="ellipse;whiteSpace=wrap;html=1;aspect=fixed;fillColor=#000000;" vertex="1" parent="1">
          <mxGeometry x="1275" y="1515" width="30" height="30" as="geometry" />
        </mxCell>
        <mxCell id="uqzOL18VkbrSNICvGYCJ-47" value="[notebook saved]" style="text;html=1;align=center;verticalAlign=middle;resizable=0;points=[];autosize=1;strokeColor=none;fillColor=none;" vertex="1" parent="1">
          <mxGeometry x="1290" y="1418" width="110" height="30" as="geometry" />
        </mxCell>
        <mxCell id="uqzOL18VkbrSNICvGYCJ-48" value="[notebook edited]" style="text;html=1;align=center;verticalAlign=middle;resizable=0;points=[];autosize=1;strokeColor=none;fillColor=none;" vertex="1" parent="1">
          <mxGeometry x="1285" y="1050" width="120" height="30" as="geometry" />
        </mxCell>
      </root>
    </mxGraphModel>
  </diagram>
</mxfile>
